<?xml version="1.0" encoding="UTF-8" standalone="no"?> <svg xmlns="http://www.w3.org/2000/svg" xmlns:xlink="http://www.w3.org/1999/xlink" viewBox="0 0 64 64"><defs><style>.cls-1{fill:url(#linear-gradient);}.cls-2{fill:url(#linear-gradient-2);}</style><linearGradient id="linear-gradient" x1="9.64" y1="28.58" x2="61.2" y2="28.58" gradientUnits="userSpaceOnUse"><stop offset="0" stop-color="#17a6d7"/><stop offset="1" stop-color="#9d31fe"/></linearGradient><linearGradient id="linear-gradient-2" x1="2" y1="32" x2="62" y2="32" xlink:href="#linear-gradient"/></defs><g id="Layer_93" data-name="Layer 93"><path class="cls-1" d="M12.55,39.49,9.69,51.91a2,2,0,0,0,2.4,2.4l12.42-2.86a2,2,0,0,0,1-.54c7.16-7.15,28.32-28.31,35.14-35.14a2,2,0,0,0,0-2.83L51.06,3.39a2,2,0,0,0-2.83,0L37.93,13.68,13.09,38.53A2,2,0,0,0,12.55,39.49ZM49.65,7.63l6.72,6.73L48.9,21.82,42.18,15.1ZM16.32,41l23-23,6.72,6.72-23,23-8.74,2Z"/><path class="cls-2" d="M60,30a2,2,0,0,0-2,2V58H6V6H32a2,2,0,0,0,0-4H4A2,2,0,0,0,2,4V60a2,2,0,0,0,2,2H60a2,2,0,0,0,2-2V32A2,2,0,0,0,60,30Z"/></g></svg>