<?xml version="1.0" encoding="UTF-8" standalone="no"?> <svg xmlns="http://www.w3.org/2000/svg" xmlns:xlink="http://www.w3.org/1999/xlink" viewBox="0 0 64 64"><defs><style>.cls-1{fill:url(#linear-gradient);}.cls-2{fill:url(#linear-gradient-2);}</style><linearGradient id="linear-gradient" x1="5.83" y1="32" x2="58.17" y2="32" gradientUnits="userSpaceOnUse"><stop offset="0" stop-color="#ffae46"/><stop offset="0.19" stop-color="#ff9755"/><stop offset="0.74" stop-color="#ff5a7d"/><stop offset="1" stop-color="#ff428d"/></linearGradient><linearGradient id="linear-gradient-2" x1="19.19" x2="44.81" xlink:href="#linear-gradient"/></defs><g id="Layer_4" data-name="Layer 4"><path class="cls-1" d="M32,5.83A26.17,26.17,0,1,0,58.17,32,26.2,26.2,0,0,0,32,5.83Zm0,48.34A22.17,22.17,0,1,1,54.17,32,22.2,22.2,0,0,1,32,54.17Z"/><path class="cls-2" d="M42.81,30H34V21.19a2,2,0,1,0-4,0V30H21.19a2,2,0,1,0,0,4H30v8.81a2,2,0,0,0,4,0V34h8.81a2,2,0,0,0,0-4Z"/></g></svg>