<?xml version="1.0" encoding="UTF-8" standalone="no"?> <svg xmlns="http://www.w3.org/2000/svg" xmlns:xlink="http://www.w3.org/1999/xlink" viewBox="0 0 64 64"><defs><style>.cls-1{fill:url(#linear-gradient);}.cls-2{fill:url(#linear-gradient-2);}.cls-3{fill:url(#linear-gradient-3);}.cls-4{fill:url(#linear-gradient-4);}.cls-5{fill:url(#linear-gradient-5);}.cls-6{fill:url(#linear-gradient-6);}.cls-7{fill:url(#linear-gradient-7);}.cls-8{fill:url(#linear-gradient-8);}.cls-9{fill:url(#linear-gradient-9);}.cls-10{fill:url(#linear-gradient-10);}</style><linearGradient id="linear-gradient" x1="15.38" y1="32" x2="48.62" y2="32" gradientUnits="userSpaceOnUse"><stop offset="0" stop-color="#17a6d7"/><stop offset="1" stop-color="#9d31fe"/></linearGradient><linearGradient id="linear-gradient-2" x1="22.13" y1="28.06" x2="34" y2="28.06" xlink:href="#linear-gradient"/><linearGradient id="linear-gradient-3" x1="30" y1="7.39" x2="34" y2="7.39" xlink:href="#linear-gradient"/><linearGradient id="linear-gradient-4" x1="45" y1="14.6" x2="53.8" y2="14.6" xlink:href="#linear-gradient"/><linearGradient id="linear-gradient-5" x1="51.22" x2="62" xlink:href="#linear-gradient"/><linearGradient id="linear-gradient-6" x1="45" y1="49.4" x2="53.8" y2="49.4" xlink:href="#linear-gradient"/><linearGradient id="linear-gradient-7" x1="30" y1="56.61" x2="34" y2="56.61" xlink:href="#linear-gradient"/><linearGradient id="linear-gradient-8" x1="10.2" y1="49.4" x2="19" y2="49.4" xlink:href="#linear-gradient"/><linearGradient id="linear-gradient-9" x1="2" x2="12.78" xlink:href="#linear-gradient"/><linearGradient id="linear-gradient-10" x1="10.2" y1="14.6" x2="19" y2="14.6" xlink:href="#linear-gradient"/></defs><g id="Layer_3" data-name="Layer 3"><path class="cls-1" d="M32,15.38A16.62,16.62,0,1,0,48.62,32,16.64,16.64,0,0,0,32,15.38Zm0,29.24A12.62,12.62,0,1,1,44.62,32,12.63,12.63,0,0,1,32,44.62Z"/><path class="cls-2" d="M32,22.13A9.87,9.87,0,0,0,22.13,32a2,2,0,0,0,4,0A5.87,5.87,0,0,1,32,26.13a2,2,0,0,0,0-4Z"/><path class="cls-3" d="M32,12.78a2,2,0,0,0,2-2V4a2,2,0,0,0-4,0v6.78A2,2,0,0,0,32,12.78Z"/><path class="cls-4" d="M47,19a2,2,0,0,0,1.42-.59l4.79-4.79a2,2,0,1,0-2.83-2.83l-4.79,4.79A2,2,0,0,0,47,19Z"/><path class="cls-5" d="M60,30H53.22a2,2,0,0,0,0,4H60a2,2,0,0,0,0-4Z"/><path class="cls-6" d="M48.42,45.59a2,2,0,0,0-2.83,2.83l4.79,4.79a2,2,0,0,0,1.42.59,2,2,0,0,0,1.41-3.42Z"/><path class="cls-7" d="M32,51.22a2,2,0,0,0-2,2V60a2,2,0,0,0,4,0V53.22A2,2,0,0,0,32,51.22Z"/><path class="cls-8" d="M15.58,45.59l-4.79,4.79a2,2,0,1,0,2.83,2.83l4.79-4.79a2,2,0,1,0-2.83-2.83Z"/><path class="cls-9" d="M12.78,32a2,2,0,0,0-2-2H4a2,2,0,0,0,0,4h6.78A2,2,0,0,0,12.78,32Z"/><path class="cls-10" d="M15.58,18.41A2,2,0,0,0,17,19a2,2,0,0,0,1.41-3.42l-4.79-4.79a2,2,0,1,0-2.83,2.83Z"/></g></svg>