<?xml version="1.0" encoding="UTF-8" standalone="no"?> <svg xmlns="http://www.w3.org/2000/svg" xmlns:xlink="http://www.w3.org/1999/xlink" viewBox="0 0 64 64"><defs><style>.cls-1{fill:url(#linear-gradient);}.cls-2{fill:url(#linear-gradient-2);}.cls-3{fill:url(#linear-gradient-3);}</style><linearGradient id="linear-gradient" x1="10" y1="32" x2="54" y2="32" gradientUnits="userSpaceOnUse"><stop offset="0" stop-color="#ffda50"/><stop offset="0.39" stop-color="#ff9b8a"/><stop offset="0.8" stop-color="#ff5ec4"/><stop offset="1" stop-color="#ff46da"/></linearGradient><linearGradient id="linear-gradient-2" x1="3" x2="61" xlink:href="#linear-gradient"/><linearGradient id="linear-gradient-3" x1="17.17" y1="33.06" x2="46.83" y2="33.06" xlink:href="#linear-gradient"/></defs><g id="Layer_19" data-name="Layer 19"><path class="cls-1" d="M32,10A22,22,0,1,0,54,32,22,22,0,0,0,32,10Zm0,42A20,20,0,1,1,52,32,20,20,0,0,1,32,52Z"/><path class="cls-2" d="M32,3A29,29,0,1,0,61,32,29,29,0,0,0,32,3Zm0,56A27,27,0,1,1,59,32,27,27,0,0,1,32,59Z"/><path class="cls-3" d="M45.51,22.74a4.49,4.49,0,0,0-6.34,0L28.05,33.87l-3.22-3.22A4.48,4.48,0,1,0,18.49,37l6.39,6.39a4.49,4.49,0,0,0,6.34,0l14.29-14.3A4.48,4.48,0,0,0,45.51,22.74ZM44.1,27.67,29.8,42a2.56,2.56,0,0,1-3.51,0l-6.39-6.4a2.48,2.48,0,1,1,3.51-3.51L27.34,36a1,1,0,0,0,1.41,0L40.59,24.16a2.54,2.54,0,0,1,3.51,0A2.48,2.48,0,0,1,44.1,27.67Z"/></g></svg>